<svg width="24" height="24" viewBox="0 0 24 24" fill="none" xmlns="http://www.w3.org/2000/svg">
<path d="M6.25 12.25C6.25 11.8358 6.58579 11.5 7 11.5H13C13.4142 11.5 13.75 11.8358 13.75 12.25C13.75 12.6642 13.4142 13 13 13H7C6.58579 13 6.25 12.6642 6.25 12.25Z" fill="#2F0D0C"/>
<path d="M7 7.5C6.58579 7.5 6.25 7.83579 6.25 8.25C6.25 8.66421 6.58579 9 7 9H9.5C9.91421 9 10.25 8.66421 10.25 8.25C10.25 7.83579 9.91421 7.5 9.5 7.5H7Z" fill="#2F0D0C"/>
<path fill-rule="evenodd" clip-rule="evenodd" d="M1.25 6.5C1.25 4.15279 3.15279 2.25 5.5 2.25H18.5C20.8472 2.25 22.75 4.15279 22.75 6.5V14.5C22.75 16.8472 20.8472 18.75 18.5 18.75H12.7249C12.4597 18.75 12.2053 18.8554 12.0178 19.0429L9.51219 21.5485C8.24147 22.8192 6.06733 22.1609 5.7149 20.3987L5.49263 19.2874C5.43013 18.9749 5.15576 18.75 4.83708 18.75C2.85599 18.75 1.25 17.144 1.25 15.1629V6.5ZM5.5 3.75C3.98122 3.75 2.75 4.98122 2.75 6.5V15.1629C2.75 16.3156 3.68442 17.25 4.83708 17.25C5.87078 17.25 6.76078 17.9796 6.9635 18.9933L7.18577 20.1046C7.30324 20.692 8.02796 20.9114 8.45153 20.4878L10.9571 17.9822C11.4259 17.5134 12.0618 17.25 12.7249 17.25H18.5C20.0188 17.25 21.25 16.0188 21.25 14.5V6.5C21.25 4.98122 20.0188 3.75 18.5 3.75H5.5Z" fill="#2F0D0C"/>
</svg>
