<svg width="24" height="24" viewBox="0 0 24 24" fill="none" xmlns="http://www.w3.org/2000/svg">
<path d="M16.1746 14.8279C16.3557 14.4554 16.2005 14.0066 15.828 13.8255C15.4555 13.6444 15.0067 13.7996 14.8256 14.1721C14.7651 14.2964 14.4616 14.7071 13.9263 15.0899C13.4093 15.4596 12.7486 15.75 12.0001 15.75C10.4279 15.75 9.58932 14.8016 9.12945 14.0921C8.90416 13.7445 8.43975 13.6453 8.09217 13.8706C7.74458 14.0959 7.64543 14.5603 7.87072 14.9079C8.44789 15.7984 9.68341 17.25 12.0001 17.25C13.144 17.25 14.1037 16.8071 14.7987 16.3101C15.4755 15.8262 15.9758 15.2369 16.1746 14.8279Z" fill="white"/>
<path fill-rule="evenodd" clip-rule="evenodd" d="M13.5069 2.58041L14.3816 3.15338L22.4088 8.37105C22.7561 8.59679 22.8547 9.06133 22.6289 9.40862C22.4032 9.75592 21.9386 9.85446 21.5913 9.62871L20.7126 9.0575C20.7374 9.24309 20.7501 9.43144 20.7501 9.62149V18C20.7501 20.3473 18.8473 22.25 16.5001 22.25H7.50009C5.15288 22.25 3.25009 20.3473 3.25009 18V9.62149C3.25009 9.43144 3.26279 9.24309 3.28762 9.0575L2.40883 9.62871C2.06153 9.85446 1.597 9.75592 1.37126 9.40862C1.14551 9.06133 1.24405 8.59679 1.59135 8.37105L9.61851 3.15339L10.4933 2.58041C11.4084 1.98101 12.5918 1.98101 13.5069 2.58041ZM12.6813 3.8372L13.5619 4.40958L18.0069 7.32104C18.7827 7.82918 19.2501 8.6941 19.2501 9.62149V18C19.2501 19.5188 18.0189 20.75 16.5001 20.75H7.50009C5.9813 20.75 4.75009 19.5188 4.75009 18V9.62149C4.75009 8.6941 5.21751 7.82918 5.99329 7.32104L10.4382 4.4096L11.3189 3.8372C11.7331 3.56794 12.2671 3.56794 12.6813 3.8372Z" fill="white"/>
</svg>
