<svg width="24" height="24" viewBox="0 0 24 24" fill="none" xmlns="http://www.w3.org/2000/svg">
<path d="M4.25 6.40064C4.25 4.73418 5.72038 3.45069 7.37156 3.67585L11.3716 4.22131C12.7341 4.40711 13.75 5.5709 13.75 6.94609V8.50001C13.75 8.91422 14.0858 9.25001 14.5 9.25001C14.9142 9.25001 15.25 8.91422 15.25 8.50001V6.94609C15.25 4.82079 13.68 3.02222 11.5742 2.73506L7.57423 2.18961C5.02241 1.84163 2.75 3.8252 2.75 6.40064V17.6044C2.75 20.4809 5.5476 22.5265 8.28862 21.6544L12.2886 20.3816C14.0523 19.8205 15.25 18.1825 15.25 16.3317V15.5C15.25 15.0858 14.9142 14.75 14.5 14.75C14.0858 14.75 13.75 15.0858 13.75 15.5V16.3317C13.75 17.5293 12.975 18.5891 11.8338 18.9523L7.83381 20.225C6.06021 20.7893 4.25 19.4657 4.25 17.6044V6.40064Z" fill="#190D03"/>
<path d="M16.9252 8.51825C17.1913 8.2008 17.6643 8.15914 17.9818 8.42521L20.6178 10.6346C21.4608 11.341 21.4608 12.6583 20.6178 13.3648L17.9819 15.5748C17.6644 15.8409 17.1914 15.7993 16.9253 15.4819C16.6592 15.1644 16.7008 14.6914 17.0182 14.4253L19.0164 12.75H9C8.58579 12.75 8.25 12.4142 8.25 12C8.25 11.5858 8.58579 11.25 9 11.25H19.017L17.0183 9.57483C16.7008 9.30875 16.6591 8.83571 16.9252 8.51825Z" fill="#190D03"/>
</svg>
