<svg width="24" height="24" viewBox="0 0 24 24" fill="none" xmlns="http://www.w3.org/2000/svg">
<path fill-rule="evenodd" clip-rule="evenodd" d="M12.0002 2.25C8.32001 2.25 5.25022 5.06847 5.25022 8.64153V9.69723C5.25022 10.7247 4.9461 11.7291 4.37618 12.584C4.36613 12.599 4.35663 12.6145 4.3477 12.6302L3.96906 13.2984C3.47894 14.1633 3.31926 15.1751 3.51495 16.1479C3.52959 16.2207 3.55335 16.3222 3.59151 16.4448C4.05486 17.9332 5.50116 18.6986 6.69011 19.0567C7.04543 19.1637 7.42267 19.2581 7.81665 19.3398L7.86793 19.4217C8.96229 21.1684 10.4349 22.2 12.0508 22.2C13.6667 22.2 15.1393 21.1684 16.2336 19.4217L16.3004 19.3152C16.6543 19.2388 16.9941 19.1521 17.3159 19.055C18.5204 18.6916 19.9095 17.9122 20.3923 16.4556C20.4104 16.4008 20.4255 16.3522 20.437 16.315C20.45 16.2731 20.4556 16.2551 20.4596 16.2436C20.4702 16.2126 20.4788 16.1809 20.4853 16.1488C20.6824 15.175 20.5212 14.1628 20.0314 13.2984L19.6527 12.6302C19.6438 12.6145 19.6343 12.599 19.6243 12.584C19.0543 11.7291 18.7502 10.7247 18.7502 9.69723V8.64153C18.7502 5.06847 15.6804 2.25 12.0002 2.25ZM14.1888 19.6352C12.7973 19.7681 11.3186 19.7715 9.92262 19.6455C10.638 20.3892 11.3824 20.7 12.0508 20.7C12.7223 20.7 13.4704 20.3863 14.1888 19.6352ZM6.75022 8.64153C6.75022 5.98312 9.0595 3.75 12.0002 3.75C14.9409 3.75 17.2502 5.98312 17.2502 8.64153V9.69723C17.2502 11.0115 17.6365 12.2965 18.3607 13.3927L18.7263 14.0379C19.0312 14.576 19.136 15.204 19.0229 15.8111L19.0067 15.863L19.0041 15.8714C18.9928 15.9079 18.9815 15.9442 18.9684 15.9836C18.7159 16.7455 17.9157 17.3073 16.8826 17.6189C14.1506 18.4432 9.85676 18.4437 7.12262 17.6204C6.06682 17.3024 5.2572 16.749 5.02372 15.9989C5.00291 15.9321 4.99137 15.8813 4.98549 15.8521C4.8606 15.2313 4.9628 14.5873 5.2741 14.0379L5.63973 13.3927C6.36395 12.2965 6.75022 11.0115 6.75022 9.69723V8.64153Z" fill="#190D03"/>
<path d="M20.3876 8.2512C20.8012 8.27461 21.1174 8.62884 21.094 9.04239C21.06 9.64315 21.0781 10.0599 21.1743 10.4179C21.2661 10.7597 21.4425 11.0956 21.8042 11.4999C22.0804 11.8086 22.054 12.2827 21.7453 12.5589C21.4366 12.8351 20.9625 12.8088 20.6863 12.5001C20.198 11.9544 19.889 11.4154 19.7256 10.8071C19.5666 10.2151 19.5597 9.60685 19.5964 8.95761C19.6198 8.54406 19.9741 8.22779 20.3876 8.2512Z" fill="#190D03"/>
<path d="M4.40272 8.95761C4.37931 8.54406 4.02508 8.22779 3.61153 8.2512C3.19798 8.27461 2.88171 8.62884 2.90512 9.04239C2.93912 9.64315 2.92105 10.0599 2.82488 10.4179C2.73308 10.7597 2.5567 11.0956 2.19498 11.4999C1.91879 11.8086 1.94513 12.2827 2.25382 12.5589C2.56251 12.8351 3.03665 12.8088 3.31284 12.5001C3.80113 11.9544 4.11012 11.4154 4.27352 10.8071C4.43255 10.2151 4.43947 9.60685 4.40272 8.95761Z" fill="#190D03"/>
</svg>
