<svg width="28" height="28" viewBox="0 0 28 28" fill="none" xmlns="http://www.w3.org/2000/svg">
<path fill-rule="evenodd" fill="#14151B" clip-rule="evenodd" d="M1.45825 14C1.45825 7.07341 7.07335 1.45831 13.9999 1.45831C20.9265 1.45831 26.5416 7.07341 26.5416 14C26.5416 20.9266 20.9265 26.5416 13.9999 26.5416C7.07335 26.5416 1.45825 20.9266 1.45825 14ZM13.9999 3.20831C8.03985 3.20831 3.20825 8.03991 3.20825 14C3.20825 19.9601 8.03985 24.7916 13.9999 24.7916C19.96 24.7916 24.7916 19.9601 24.7916 14C24.7916 8.03991 19.96 3.20831 13.9999 3.20831ZM10.7057 11.375L11.6454 10.5872C12.0157 10.2767 12.0642 9.72483 11.7538 9.35451C11.4433 8.98418 10.8914 8.93567 10.5211 9.24614L8.47094 10.9649C8.07761 11.2947 7.87897 11.7646 7.87503 12.236C7.87496 12.2407 7.87492 12.2453 7.87492 12.25C7.87492 12.2544 7.87495 12.2588 7.87502 12.2633C7.87859 12.7351 8.07723 13.2056 8.47094 13.5356L10.5212 15.2539C10.8916 15.5644 11.4434 15.5158 11.7539 15.1454C12.0643 14.775 12.0157 14.2231 11.6453 13.9127L10.7054 13.125H16.0416C17.1692 13.125 18.0833 14.0391 18.0833 15.1666C18.0833 16.2942 17.1692 17.2083 16.0416 17.2083H13.7083C13.225 17.2083 12.8333 17.6001 12.8333 18.0833C12.8333 18.5666 13.225 18.9583 13.7083 18.9583H16.0416C18.1357 18.9583 19.8333 17.2607 19.8333 15.1666C19.8333 13.0726 18.1357 11.375 16.0416 11.375H10.7057Z"/>
</svg>
