<svg width="24" height="24" viewBox="0 0 24 24" fill="none" xmlns="http://www.w3.org/2000/svg">
<path fill-rule="evenodd" clip-rule="evenodd" d="M12.0002 2.25C9.37682 2.25 7.25017 4.37665 7.25017 7C7.25017 9.62335 9.37682 11.75 12.0002 11.75C14.6235 11.75 16.7502 9.62335 16.7502 7C16.7502 4.37665 14.6235 2.25 12.0002 2.25ZM8.75017 7C8.75017 5.20507 10.2052 3.75 12.0002 3.75C13.7951 3.75 15.2502 5.20507 15.2502 7C15.2502 8.79493 13.7951 10.25 12.0002 10.25C10.2052 10.25 8.75017 8.79493 8.75017 7Z" fill="#2F0D0C"/>
<path d="M6.77854 15.8591C7.18282 15.1719 7.92055 14.75 8.71781 14.75H14.5021C14.9163 14.75 15.2521 14.4142 15.2521 14C15.2521 13.5858 14.9163 13.25 14.5021 13.25H8.71781C7.38904 13.25 6.15949 13.9532 5.48569 15.0984L4.82392 16.2233C4.30161 17.111 4.07755 18.1478 4.29146 19.0798C4.51471 20.0525 5.20635 20.8451 6.33827 21.1375C8.20472 21.6197 10.6845 21.8118 13.0274 21.7328C13.4414 21.7188 13.7657 21.3719 13.7517 20.958C13.7377 20.544 13.3908 20.2197 12.9769 20.2336C10.7251 20.3096 8.39809 20.1204 6.71345 19.6852C6.13789 19.5365 5.85464 19.1852 5.75344 18.7443C5.6429 18.2626 5.74483 17.6161 6.11677 16.9839L6.77854 15.8591Z" fill="#2F0D0C"/>
<path fill-rule="evenodd" clip-rule="evenodd" d="M21.1289 20.318C21.5215 19.7252 21.7502 19.0143 21.7502 18.25C21.7502 16.1789 20.0712 14.5 18.0002 14.5C15.9291 14.5 14.2502 16.1789 14.2502 18.25C14.2502 20.3211 15.9291 22 18.0002 22C18.7645 22 19.4754 21.7713 20.0682 21.3787L20.9702 22.2807C21.2631 22.5736 21.738 22.5736 22.0309 22.2807C22.3237 21.9878 22.3237 21.5129 22.0309 21.22L21.1289 20.318ZM15.7502 18.25C15.7502 17.0074 16.7575 16 18.0002 16C19.2428 16 20.2502 17.0074 20.2502 18.25C20.2502 19.4926 19.2428 20.5 18.0002 20.5C16.7575 20.5 15.7502 19.4926 15.7502 18.25Z" fill="#2F0D0C"/>
</svg>
